<svg width="93" height="24" viewBox="0 0 93 24" fill="none" xmlns="http://www.w3.org/2000/svg">
<path d="M8.98047 4V16C8.98047 16.5304 9.19118 17.0391 9.56626 17.4142C9.94133 17.7893 10.45 18 10.9805 18H18.9805C19.5109 18 20.0196 17.7893 20.3947 17.4142C20.7698 17.0391 20.9805 16.5304 20.9805 16V7.242C20.9804 6.97556 20.9272 6.71181 20.8238 6.46624C20.7204 6.22068 20.569 5.99824 20.3785 5.812L17.0635 2.57C16.6898 2.20466 16.188 2.00007 15.6655 2H10.9805C10.45 2 9.94133 2.21071 9.56626 2.58579C9.19118 2.96086 8.98047 3.46957 8.98047 4V4Z" stroke="#587BE0" stroke-width="2" stroke-linecap="round" stroke-linejoin="round"/>
<path d="M16.9805 18V20C16.9805 20.5304 16.7698 21.0391 16.3947 21.4142C16.0196 21.7893 15.5109 22 14.9805 22H6.98047C6.45004 22 5.94133 21.7893 5.56626 21.4142C5.19118 21.0391 4.98047 20.5304 4.98047 20V9C4.98047 8.46957 5.19118 7.96086 5.56626 7.58579C5.94133 7.21071 6.45004 7 6.98047 7H8.98047" stroke="#587BE0" stroke-width="2" stroke-linecap="round" stroke-linejoin="round"/>
<path d="M36.1675 17.21C35.1595 17.21 34.3008 16.9907 33.5915 16.552C32.8821 16.1087 32.3385 15.4927 31.9605 14.704C31.5871 13.9153 31.4005 13.0007 31.4005 11.96C31.4005 10.9193 31.5871 10.0047 31.9605 9.216C32.3385 8.42733 32.8821 7.81367 33.5915 7.375C34.3008 6.93167 35.1595 6.71 36.1675 6.71C37.3295 6.71 38.2908 7.004 39.0515 7.592C39.8168 8.18 40.3488 8.971 40.6475 9.965L39.1635 10.364C38.9675 9.65933 38.6175 9.10633 38.1135 8.705C37.6141 8.30367 36.9655 8.103 36.1675 8.103C35.4535 8.103 34.8585 8.264 34.3825 8.586C33.9065 8.908 33.5471 9.35833 33.3045 9.937C33.0665 10.5157 32.9475 11.19 32.9475 11.96C32.9428 12.73 33.0595 13.4043 33.2975 13.983C33.5401 14.5617 33.8995 15.012 34.3755 15.334C34.8561 15.656 35.4535 15.817 36.1675 15.817C36.9655 15.817 37.6141 15.6163 38.1135 15.215C38.6175 14.809 38.9675 14.256 39.1635 13.556L40.6475 13.955C40.3488 14.949 39.8168 15.74 39.0515 16.328C38.2908 16.916 37.3295 17.21 36.1675 17.21ZM45.47 17.21C44.714 17.21 44.0584 17.0397 43.503 16.699C42.9477 16.3583 42.5184 15.8893 42.215 15.292C41.9164 14.69 41.767 13.997 41.767 13.213C41.767 12.4243 41.921 11.7313 42.229 11.134C42.537 10.532 42.9687 10.0653 43.524 9.734C44.0794 9.398 44.728 9.23 45.47 9.23C46.226 9.23 46.8817 9.40033 47.437 9.741C47.9924 10.0817 48.4217 10.5507 48.725 11.148C49.0284 11.7453 49.18 12.4337 49.18 13.213C49.18 14.0017 49.026 14.697 48.718 15.299C48.4147 15.8963 47.9854 16.3653 47.43 16.706C46.8747 17.042 46.2214 17.21 45.47 17.21ZM45.47 15.831C46.1934 15.831 46.7324 15.5883 47.087 15.103C47.4464 14.613 47.626 13.983 47.626 13.213C47.626 12.4243 47.444 11.7943 47.08 11.323C46.7207 10.847 46.184 10.609 45.47 10.609C44.98 10.609 44.5764 10.721 44.259 10.945C43.9417 11.1643 43.706 11.47 43.552 11.862C43.398 12.2493 43.321 12.6997 43.321 13.213C43.321 14.0063 43.503 14.641 43.867 15.117C44.231 15.593 44.7654 15.831 45.47 15.831ZM54.2673 17.21C53.5439 17.21 52.9373 17.035 52.4473 16.685C51.9573 16.3303 51.5863 15.852 51.3343 15.25C51.0823 14.648 50.9563 13.969 50.9563 13.213C50.9563 12.457 51.0799 11.778 51.3273 11.176C51.5793 10.574 51.9479 10.1003 52.4333 9.755C52.9233 9.405 53.5253 9.23 54.2393 9.23C54.9486 9.23 55.5599 9.405 56.0733 9.755C56.5913 10.1003 56.9903 10.574 57.2703 11.176C57.5503 11.7733 57.6903 12.4523 57.6903 13.213C57.6903 13.969 57.5503 14.6503 57.2703 15.257C56.9949 15.859 56.6006 16.335 56.0873 16.685C55.5786 17.035 54.9719 17.21 54.2673 17.21ZM50.7113 20.36V9.44H52.0133V14.879H52.1813V20.36H50.7113ZM54.0643 15.887C54.5309 15.887 54.9159 15.768 55.2193 15.53C55.5273 15.292 55.7559 14.9723 55.9053 14.571C56.0593 14.165 56.1363 13.7123 56.1363 13.213C56.1363 12.7183 56.0593 12.2703 55.9053 11.869C55.7559 11.4677 55.5249 11.148 55.2123 10.91C54.8996 10.672 54.5006 10.553 54.0153 10.553C53.5579 10.553 53.1799 10.665 52.8813 10.889C52.5873 11.113 52.3679 11.4257 52.2233 11.827C52.0833 12.2283 52.0133 12.6903 52.0133 13.213C52.0133 13.7357 52.0833 14.1977 52.2233 14.599C52.3633 15.0003 52.5849 15.3153 52.8883 15.544C53.1916 15.7727 53.5836 15.887 54.0643 15.887ZM59.9844 20.36L61.4474 16.377L61.4684 17.553L58.1714 9.44H59.6974L62.1614 15.705H61.7134L64.0654 9.44H65.5494L61.3774 20.36H59.9844ZM69.5888 17V6.71H71.0518V17H69.5888ZM73.2938 8.201V6.78H74.7568V8.201H73.2938ZM73.2938 17V9.44H74.7568V17H73.2938ZM82.1649 17V13.283C82.1649 12.989 82.1392 12.688 82.0879 12.38C82.0412 12.0673 81.9479 11.778 81.8079 11.512C81.6726 11.246 81.4789 11.0313 81.2269 10.868C80.9796 10.7047 80.6552 10.623 80.2539 10.623C79.9926 10.623 79.7452 10.6673 79.5119 10.756C79.2786 10.84 79.0732 10.9777 78.8959 11.169C78.7232 11.3603 78.5856 11.6123 78.4829 11.925C78.3849 12.2377 78.3359 12.618 78.3359 13.066L77.4259 12.723C77.4259 12.037 77.5542 11.4327 77.8109 10.91C78.0676 10.3827 78.4362 9.972 78.9169 9.678C79.3976 9.384 79.9786 9.237 80.6599 9.237C81.1826 9.237 81.6212 9.321 81.9759 9.489C82.3306 9.657 82.6176 9.87867 82.8369 10.154C83.0609 10.4247 83.2312 10.721 83.3479 11.043C83.4646 11.365 83.5439 11.68 83.5859 11.988C83.6279 12.296 83.6489 12.5667 83.6489 12.8V17H82.1649ZM76.8519 17V9.44H78.1609V11.624H78.3359V17H76.8519ZM85.4652 17L85.4722 6.92H86.9562V13.08L89.9242 9.44H91.7862L88.6502 13.22L92.1082 17H90.1202L86.9562 13.36V17H85.4652Z" fill="#587BE0"/>
</svg>
