<svg width="25" height="24" viewBox="0 0 25 24" fill="none" xmlns="http://www.w3.org/2000/svg">
<g clip-path="url(#clip0_1_2178)">
<path d="M21.2975 4.492C19.7675 3.802 18.1275 3.292 16.4125 3.002C16.3972 2.99907 16.3814 3.00096 16.3672 3.00741C16.3531 3.01386 16.3413 3.02455 16.3335 3.038C16.1235 3.407 15.8895 3.888 15.7255 4.268C13.9066 3.99624 12.0574 3.99624 10.2385 4.268C10.0558 3.84686 9.84981 3.43623 9.62146 3.038C9.61372 3.02439 9.60201 3.01345 9.5879 3.00666C9.57378 2.99987 9.55793 2.99755 9.54246 3C7.82846 3.29 6.18846 3.8 4.65746 4.491C4.64429 4.49653 4.63312 4.50595 4.62546 4.518C1.51346 9.093 0.660461 13.555 1.07946 17.961C1.08063 17.9718 1.08398 17.9822 1.08931 17.9917C1.09464 18.0011 1.10183 18.0094 1.11046 18.016C2.92685 19.3384 4.9528 20.3458 7.10346 20.996C7.11845 21.0006 7.13449 21.0006 7.14947 20.996C7.16446 20.9913 7.1777 20.9823 7.18746 20.97C7.64946 20.35 8.06146 19.695 8.41346 19.007C8.43446 18.967 8.41446 18.919 8.37246 18.903C7.72647 18.6597 7.10055 18.3662 6.50046 18.025C6.48968 18.0188 6.48059 18.0101 6.47402 17.9996C6.46744 17.989 6.46359 17.977 6.46279 17.9647C6.462 17.9523 6.4643 17.9399 6.46947 17.9286C6.47465 17.9173 6.48255 17.9075 6.49246 17.9C6.61846 17.807 6.74446 17.71 6.86446 17.613C6.87526 17.6043 6.88827 17.5987 6.90205 17.597C6.91582 17.5952 6.92981 17.5973 6.94246 17.603C10.8695 19.367 15.1225 19.367 19.0035 17.603C19.0161 17.5969 19.0303 17.5946 19.0443 17.5962C19.0582 17.5978 19.0715 17.6032 19.0825 17.612C19.2025 17.71 19.3275 17.807 19.4545 17.9C19.4645 17.9073 19.4725 17.917 19.4778 17.9282C19.4832 17.9394 19.4857 17.9517 19.4851 17.9641C19.4845 17.9765 19.4808 17.9885 19.4744 17.9992C19.468 18.0098 19.4591 18.0187 19.4485 18.025C18.8505 18.369 18.2285 18.66 17.5755 18.902C17.5654 18.9056 17.5563 18.9114 17.5487 18.9188C17.541 18.9263 17.5351 18.9353 17.5312 18.9452C17.5273 18.9552 17.5256 18.9658 17.5262 18.9765C17.5267 18.9871 17.5296 18.9975 17.5345 19.007C17.8945 19.694 18.3065 20.348 18.7595 20.969C18.7689 20.9817 18.782 20.9913 18.797 20.9963C18.8121 21.0013 18.8283 21.0015 18.8435 20.997C20.9978 20.3486 23.0271 19.3408 24.8455 18.016C24.8543 18.0098 24.8618 18.0018 24.8673 17.9925C24.8728 17.9831 24.8763 17.9728 24.8775 17.962C25.3775 12.868 24.0395 8.442 21.3285 4.52C21.3218 4.50726 21.3108 4.49732 21.2975 4.492ZM9.00046 15.278C7.81846 15.278 6.84346 14.209 6.84346 12.898C6.84346 11.586 7.79946 10.518 9.00046 10.518C10.2105 10.518 11.1765 11.595 11.1575 12.898C11.1575 14.21 10.2015 15.278 9.00046 15.278ZM16.9755 15.278C15.7925 15.278 14.8185 14.209 14.8185 12.898C14.8185 11.586 15.7735 10.518 16.9755 10.518C18.1855 10.518 19.1515 11.595 19.1325 12.898C19.1325 14.21 18.1865 15.278 16.9755 15.278Z" fill="#587BE0"/>
</g>
<defs>
<clipPath id="clip0_1_2178">
<rect width="24" height="24" fill="white" transform="translate(0.980469)"/>
</clipPath>
</defs>
</svg>
