<svg width="25" height="24" viewBox="0 0 25 24" fill="none" xmlns="http://www.w3.org/2000/svg">
<path fill-rule="evenodd" clip-rule="evenodd" d="M24.9805 12C24.9805 18.627 19.6075 24 12.9805 24C6.35347 24 0.980469 18.627 0.980469 12C0.980469 5.373 6.35347 0 12.9805 0C19.6075 0 24.9805 5.373 24.9805 12ZM13.4105 8.859C12.2435 9.344 9.91047 10.349 6.41247 11.873C5.84447 12.099 5.54647 12.32 5.51947 12.536C5.47347 12.902 5.93147 13.046 6.55347 13.241C6.63847 13.268 6.72647 13.295 6.81647 13.325C7.42947 13.524 8.25347 13.757 8.68147 13.766C9.07047 13.774 9.50447 13.614 9.98347 13.286C13.2515 11.079 14.9385 9.964 15.0445 9.94C15.1195 9.923 15.2235 9.901 15.2935 9.964C15.3635 10.026 15.3565 10.144 15.3495 10.176C15.3035 10.369 13.5095 12.038 12.5795 12.902C12.2895 13.171 12.0845 13.362 12.0425 13.406C11.9485 13.503 11.8525 13.596 11.7605 13.685C11.1905 14.233 10.7645 14.645 11.7845 15.317C12.2745 15.64 12.6665 15.907 13.0575 16.173C13.4845 16.464 13.9105 16.754 14.4625 17.116C14.6025 17.208 14.7365 17.303 14.8675 17.396C15.3645 17.751 15.8115 18.069 16.3635 18.019C16.6835 17.989 17.0155 17.688 17.1835 16.789C17.5805 14.663 18.3625 10.059 18.5435 8.161C18.5545 8.00341 18.5478 7.84509 18.5235 7.689C18.5089 7.56293 18.4475 7.44693 18.3515 7.364C18.2085 7.247 17.9865 7.222 17.8865 7.224C17.4355 7.232 16.7435 7.473 13.4105 8.859Z" fill="#587BE0"/>
</svg>
