<svg width="35" height="35" viewBox="0 0 35 35" fill="none" xmlns="http://www.w3.org/2000/svg">
<circle cx="17.5" cy="17.5" r="17.5" fill="#885FFF"/>
<g clip-path="url(#clip0_1_2513)">
<path d="M11.7547 16.1132C14.1619 16.1132 16.1132 14.1619 16.1132 11.7547C16.1132 9.3476 14.1619 7.39624 11.7547 7.39624C9.3476 7.39624 7.39624 9.3476 7.39624 11.7547C7.39624 14.1619 9.3476 16.1132 11.7547 16.1132Z" fill="white"/>
</g>
<path d="M22.5657 8.52864C22.8735 8.01592 23.6169 8.01592 23.9247 8.52864L27.28 14.1206C27.5969 14.6488 27.2166 15.3208 26.6004 15.3208H19.8899C19.2742 15.3208 18.8938 14.6488 19.2104 14.1206L22.5657 8.52864Z" fill="white"/>
<g clip-path="url(#clip1_1_2513)">
<path d="M26.415 19.283H20.0754C19.6378 19.283 19.283 19.6378 19.283 20.0755V26.4151C19.283 26.8528 19.6378 27.2075 20.0754 27.2075H26.415C26.8527 27.2075 27.2075 26.8528 27.2075 26.4151V20.0755C27.2075 19.6378 26.8527 19.283 26.415 19.283Z" fill="white"/>
<path d="M22.6943 19.5112C22.8404 19.3652 23.0385 19.2831 23.2451 19.2831C23.4517 19.2831 23.6498 19.3652 23.7958 19.5112L26.9791 22.6945C27.1252 22.8406 27.2072 23.0387 27.2072 23.2453C27.2072 23.4518 27.1252 23.6499 26.9791 23.796L23.7958 26.9793C23.6498 27.1254 23.4517 27.2074 23.2451 27.2074C23.0385 27.2074 22.8404 27.1254 22.6943 26.9793L19.511 23.796C19.365 23.6499 19.283 23.4518 19.283 23.2453C19.283 23.0387 19.365 22.8406 19.511 22.6945L22.6943 19.5112Z" fill="white"/>
</g>
<path d="M11.2039 19.5112C11.3499 19.3652 11.548 19.2831 11.7546 19.2831C11.9612 19.2831 12.1593 19.3652 12.3054 19.5112L15.4886 22.6945C15.6347 22.8406 15.7167 23.0387 15.7167 23.2453C15.7167 23.4518 15.6347 23.6499 15.4886 23.796L12.3054 26.9793C12.1593 27.1254 11.9612 27.2074 11.7546 27.2074C11.548 27.2074 11.3499 27.1254 11.2039 26.9793L8.02057 23.796C7.87453 23.6499 7.79248 23.4518 7.79248 23.2453C7.79248 23.0387 7.87453 22.8406 8.02057 22.6945L11.2039 19.5112Z" fill="white"/>
<defs>
<clipPath id="clip0_1_2513">
<rect width="9.50943" height="9.50943" fill="white" transform="translate(7 7)"/>
</clipPath>
<clipPath id="clip1_1_2513">
<rect width="9.50943" height="9.50943" fill="white" transform="translate(18.4905 18.4905)"/>
</clipPath>
</defs>
</svg>
