<svg width="106" height="44" viewBox="0 0 106 44" fill="none" xmlns="http://www.w3.org/2000/svg">
<path d="M0.980957 18C0.980957 12.3995 0.980957 9.59921 2.07089 7.46009C3.02963 5.57847 4.55943 4.04867 6.44105 3.08993C8.58017 2 11.3804 2 16.981 2H89.981C95.5815 2 98.3817 2 100.521 3.08993C102.402 4.04867 103.932 5.57847 104.891 7.46009C105.981 9.59921 105.981 12.3995 105.981 18V26C105.981 31.6005 105.981 34.4008 104.891 36.5399C103.932 38.4215 102.402 39.9513 100.521 40.9101C98.3817 42 95.5815 42 89.981 42H16.981C11.3804 42 8.58017 42 6.44105 40.9101C4.55943 39.9513 3.02963 38.4215 2.07089 36.5399C0.980957 34.4008 0.980957 31.6005 0.980957 26V18Z" fill="#414047"/>
<path d="M22.8578 27.74C24.0098 27.74 24.9911 27.4867 25.8018 26.98C26.6124 26.4733 27.2311 25.772 27.6578 24.876C28.0844 23.9747 28.2978 22.9293 28.2978 21.74C28.2978 20.5507 28.0844 19.508 27.6578 18.612C27.2311 17.7107 26.6124 17.0067 25.8018 16.5C24.9911 15.9933 24.0098 15.74 22.8578 15.74C21.7058 15.74 20.7244 15.9933 19.9138 16.5C19.1031 17.0067 18.4818 17.7107 18.0498 18.612C17.6231 19.508 17.4098 20.5507 17.4098 21.74C17.4098 22.9293 17.6231 23.9747 18.0498 24.876C18.4818 25.772 19.1031 26.4733 19.9138 26.98C20.7244 27.4867 21.7058 27.74 22.8578 27.74ZM22.8578 26.148C21.6364 26.1373 20.7164 25.7293 20.0978 24.924C19.4844 24.1187 19.1804 23.0573 19.1858 21.74C19.1911 20.86 19.3271 20.0893 19.5938 19.428C19.8658 18.7613 20.2738 18.244 20.8178 17.876C21.3618 17.5027 22.0418 17.3213 22.8578 17.332C24.0844 17.3373 25.0018 17.7427 25.6098 18.548C26.2178 19.3533 26.5218 20.4173 26.5218 21.74C26.5218 22.62 26.3858 23.3933 26.1138 24.06C25.8471 24.7213 25.4418 25.236 24.8978 25.604C24.3538 25.972 23.6738 26.1533 22.8578 26.148ZM29.4775 31.34H31.1575V26.892C31.4615 27.164 31.8109 27.372 32.2055 27.516C32.6055 27.6653 33.0509 27.74 33.5415 27.74C34.3469 27.74 35.0402 27.54 35.6215 27.14C36.2082 26.7347 36.6589 26.188 36.9735 25.5C37.2935 24.812 37.4535 24.036 37.4535 23.172C37.4535 22.3027 37.2935 21.5267 36.9735 20.844C36.6535 20.156 36.1975 19.6147 35.6055 19.22C35.0189 18.82 34.3202 18.62 33.5095 18.62C32.9762 18.62 32.4962 18.7107 32.0695 18.892C31.6429 19.068 31.2749 19.316 30.9655 19.636V18.86H29.4775V31.34ZM33.3095 26.228C32.4882 26.228 31.8909 25.9427 31.5175 25.372C31.1495 24.8013 30.9655 24.068 30.9655 23.172C30.9655 22.276 31.1495 21.5453 31.5175 20.98C31.8855 20.4147 32.4642 20.132 33.2535 20.132C33.8082 20.132 34.2642 20.268 34.6215 20.54C34.9789 20.812 35.2429 21.1773 35.4135 21.636C35.5895 22.0947 35.6775 22.6067 35.6775 23.172C35.6775 23.7427 35.5922 24.26 35.4215 24.724C35.2509 25.1827 34.9895 25.548 34.6375 25.82C34.2909 26.092 33.8482 26.228 33.3095 26.228ZM42.6439 27.74C43.4812 27.74 44.2412 27.5293 44.9239 27.108C45.6066 26.6813 46.1159 26.0813 46.4519 25.308L44.8119 24.788C44.3746 25.7053 43.6252 26.164 42.5639 26.164C41.8386 26.164 41.2679 25.9453 40.8519 25.508C40.4359 25.0707 40.1932 24.452 40.1239 23.652H46.5639C46.6226 22.6173 46.4999 21.724 46.1959 20.972C45.8919 20.22 45.4306 19.6413 44.8119 19.236C44.1932 18.8253 43.4439 18.62 42.5639 18.62C41.7212 18.62 40.9826 18.8093 40.3479 19.188C39.7132 19.5667 39.2172 20.1027 38.8599 20.796C38.5079 21.4893 38.3319 22.308 38.3319 23.252C38.3319 24.1427 38.5106 24.9267 38.8679 25.604C39.2306 26.276 39.7346 26.8013 40.3799 27.18C41.0306 27.5533 41.7852 27.74 42.6439 27.74ZM42.6279 20.1C43.9346 20.1 44.6759 20.8493 44.8519 22.348H40.1639C40.2706 21.6173 40.5292 21.06 40.9399 20.676C41.3506 20.292 41.9132 20.1 42.6279 20.1ZM47.7084 27.5H49.4044V23.004C49.4044 22.3213 49.5031 21.7773 49.7004 21.372C49.9031 20.9613 50.1697 20.6653 50.5004 20.484C50.8311 20.3027 51.1964 20.212 51.5964 20.212C52.0551 20.212 52.4284 20.3053 52.7164 20.492C53.0044 20.6787 53.2257 20.924 53.3804 21.228C53.5351 21.532 53.6391 21.8627 53.6924 22.22C53.7511 22.572 53.7804 22.916 53.7804 23.252V27.5H55.4764V22.7C55.4764 22.4333 55.4524 22.124 55.4044 21.772C55.3564 21.42 55.2657 21.06 55.1324 20.692C54.9991 20.324 54.8044 19.9853 54.5484 19.676C54.2977 19.3613 53.9697 19.108 53.5644 18.916C53.1591 18.724 52.6577 18.628 52.0604 18.628C51.4364 18.628 50.8817 18.74 50.3964 18.964C49.9164 19.188 49.5191 19.4973 49.2044 19.892V18.86H47.7084V27.5Z" fill="white"/>
<path d="M87.985 19.414L79.378 28.021L77.964 26.607L86.57 18H78.985V16H89.985V27H87.985V19.414Z" fill="white"/>
</svg>
