<svg width="71" height="22" viewBox="0 0 71 22" fill="none" xmlns="http://www.w3.org/2000/svg">
<path d="M11.106 9.875L16.731 4.25" stroke="#587BE0" stroke-width="2" stroke-linecap="round" stroke-linejoin="round"/>
<path d="M12.981 4.25H16.731V8" stroke="#587BE0" stroke-width="2" stroke-linecap="round" stroke-linejoin="round"/>
<path d="M16.731 12.5V16.25C16.731 16.6478 16.5729 17.0294 16.2916 17.3107C16.0103 17.592 15.6288 17.75 15.231 17.75H4.73096C4.33313 17.75 3.9516 17.592 3.6703 17.3107C3.38899 17.0294 3.23096 16.6478 3.23096 16.25V5.75C3.23096 5.35218 3.38899 4.97064 3.6703 4.68934C3.9516 4.40804 4.33313 4.25 4.73096 4.25H8.48096" stroke="#587BE0" stroke-width="2" stroke-linecap="round" stroke-linejoin="round"/>
<path d="M32.277 17.24C31.4503 17.24 30.7036 17.0987 30.037 16.816C29.3756 16.528 28.829 16.12 28.397 15.592C27.9703 15.0587 27.693 14.4267 27.565 13.696L29.309 13.432C29.485 14.136 29.853 14.6853 30.413 15.08C30.973 15.4693 31.6263 15.664 32.373 15.664C32.837 15.664 33.2636 15.592 33.653 15.448C34.0423 15.2987 34.3543 15.088 34.589 14.816C34.829 14.5387 34.949 14.208 34.949 13.824C34.949 13.616 34.9116 13.432 34.837 13.272C34.7676 13.112 34.669 12.9733 34.541 12.856C34.4183 12.7333 34.2663 12.6293 34.085 12.544C33.909 12.4533 33.7143 12.376 33.501 12.312L30.549 11.44C30.261 11.3547 29.9676 11.2453 29.669 11.112C29.3703 10.9733 29.0956 10.7947 28.845 10.576C28.5996 10.352 28.3996 10.0773 28.245 9.752C28.0903 9.42133 28.013 9.02133 28.013 8.552C28.013 7.84267 28.1943 7.24267 28.557 6.752C28.925 6.256 29.421 5.88267 30.045 5.632C30.669 5.376 31.3676 5.248 32.141 5.248C32.9196 5.25867 33.6156 5.39733 34.229 5.664C34.8476 5.93067 35.3596 6.31467 35.765 6.816C36.1756 7.312 36.4583 7.91467 36.613 8.624L34.821 8.928C34.741 8.496 34.5703 8.12533 34.309 7.816C34.0476 7.50133 33.7276 7.26133 33.349 7.096C32.9703 6.92533 32.5596 6.83733 32.117 6.832C31.6903 6.82133 31.2983 6.88533 30.941 7.024C30.589 7.16267 30.3063 7.35733 30.093 7.608C29.885 7.85867 29.781 8.14667 29.781 8.472C29.781 8.792 29.8743 9.05067 30.061 9.248C30.2476 9.44533 30.477 9.60267 30.749 9.72C31.0263 9.832 31.301 9.92533 31.573 10L33.701 10.6C33.9676 10.6747 34.269 10.776 34.605 10.904C34.9463 11.0267 35.2743 11.2 35.589 11.424C35.909 11.648 36.173 11.9467 36.381 12.32C36.589 12.688 36.693 13.152 36.693 13.712C36.693 14.2933 36.5756 14.8053 36.341 15.248C36.1063 15.6853 35.7836 16.0533 35.373 16.352C34.9676 16.6453 34.4983 16.8667 33.965 17.016C33.4316 17.1653 32.869 17.24 32.277 17.24ZM44.0538 17V12.752C44.0538 12.416 44.0245 12.072 43.9658 11.72C43.9125 11.3627 43.8058 11.032 43.6458 10.728C43.4912 10.424 43.2698 10.1787 42.9818 9.992C42.6992 9.80533 42.3285 9.712 41.8698 9.712C41.5712 9.712 41.2885 9.76267 41.0218 9.864C40.7552 9.96 40.5205 10.1173 40.3178 10.336C40.1205 10.5547 39.9632 10.8427 39.8458 11.2C39.7338 11.5573 39.6778 11.992 39.6778 12.504L38.6378 12.112C38.6378 11.328 38.7845 10.6373 39.0778 10.04C39.3712 9.43733 39.7925 8.968 40.3418 8.632C40.8912 8.296 41.5552 8.128 42.3338 8.128C42.9312 8.128 43.4325 8.224 43.8378 8.416C44.2432 8.608 44.5712 8.86133 44.8218 9.176C45.0778 9.48533 45.2725 9.824 45.4058 10.192C45.5392 10.56 45.6298 10.92 45.6778 11.272C45.7258 11.624 45.7498 11.9333 45.7498 12.2V17H44.0538ZM37.9818 17V5.48H39.4778V11.696H39.6778V17H37.9818ZM49.8656 17.24C49.2256 17.24 48.6896 17.1227 48.2576 16.888C47.8256 16.648 47.4976 16.3333 47.2736 15.944C47.0549 15.5493 46.9456 15.1173 46.9456 14.648C46.9456 14.2107 47.0229 13.8267 47.1776 13.496C47.3322 13.1653 47.5616 12.8853 47.8656 12.656C48.1696 12.4213 48.5429 12.232 48.9856 12.088C49.3696 11.976 49.8042 11.8773 50.2896 11.792C50.7749 11.7067 51.2842 11.6267 51.8176 11.552C52.3562 11.4773 52.8896 11.4027 53.4176 11.328L52.8096 11.664C52.8202 10.9867 52.6762 10.4853 52.3776 10.16C52.0842 9.82933 51.5776 9.664 50.8576 9.664C50.4042 9.664 49.9882 9.77067 49.6096 9.984C49.2309 10.192 48.9669 10.5387 48.8176 11.024L47.2576 10.544C47.4709 9.80267 47.8762 9.21333 48.4736 8.776C49.0762 8.33867 49.8762 8.12 50.8736 8.12C51.6469 8.12 52.3189 8.25333 52.8896 8.52C53.4656 8.78133 53.8869 9.19733 54.1536 9.768C54.2922 10.0507 54.3776 10.3493 54.4096 10.664C54.4416 10.9787 54.4576 11.3173 54.4576 11.68V17H52.9776V15.024L53.2656 15.28C52.9082 15.9413 52.4522 16.4347 51.8976 16.76C51.3482 17.08 50.6709 17.24 49.8656 17.24ZM50.1616 15.872C50.6362 15.872 51.0442 15.7893 51.3856 15.624C51.7269 15.4533 52.0016 15.2373 52.2096 14.976C52.4176 14.7147 52.5536 14.4427 52.6176 14.16C52.7082 13.904 52.7589 13.616 52.7696 13.296C52.7856 12.976 52.7936 12.72 52.7936 12.528L53.3376 12.728C52.8096 12.808 52.3296 12.88 51.8976 12.944C51.4656 13.008 51.0736 13.072 50.7216 13.136C50.3749 13.1947 50.0656 13.2667 49.7936 13.352C49.5642 13.432 49.3589 13.528 49.1776 13.64C49.0016 13.752 48.8602 13.888 48.7536 14.048C48.6522 14.208 48.6016 14.4027 48.6016 14.632C48.6016 14.856 48.6576 15.064 48.7696 15.256C48.8816 15.4427 49.0522 15.592 49.2816 15.704C49.5109 15.816 49.8042 15.872 50.1616 15.872ZM56.127 17V8.36H57.615V10.456L57.407 10.184C57.5136 9.90667 57.6523 9.65333 57.823 9.424C57.9936 9.18933 58.191 8.99733 58.415 8.848C58.6336 8.688 58.8763 8.56533 59.143 8.48C59.415 8.38933 59.6923 8.336 59.975 8.32C60.2576 8.29867 60.5296 8.312 60.791 8.36V9.928C60.5083 9.85333 60.1936 9.832 59.847 9.864C59.5056 9.896 59.191 10.0053 58.903 10.192C58.631 10.368 58.415 10.5813 58.255 10.832C58.1003 11.0827 57.9883 11.3627 57.919 11.672C57.8496 11.976 57.815 12.2987 57.815 12.64V17H56.127ZM65.5822 17.24C64.7235 17.24 63.9689 17.0533 63.3182 16.68C62.6729 16.3013 62.1689 15.776 61.8062 15.104C61.4489 14.4267 61.2702 13.6427 61.2702 12.752C61.2702 11.808 61.4462 10.9893 61.7982 10.296C62.1555 9.60267 62.6515 9.06667 63.2862 8.688C63.9209 8.30933 64.6595 8.12 65.5022 8.12C66.3822 8.12 67.1315 8.32533 67.7502 8.736C68.3689 9.14133 68.8302 9.72 69.1342 10.472C69.4435 11.224 69.5662 12.1173 69.5022 13.152H67.8302V12.544C67.8195 11.5413 67.6275 10.8 67.2542 10.32C66.8862 9.84 66.3235 9.6 65.5662 9.6C64.7289 9.6 64.0995 9.864 63.6782 10.392C63.2569 10.92 63.0462 11.6827 63.0462 12.68C63.0462 13.6293 63.2569 14.3653 63.6782 14.888C64.0995 15.4053 64.7075 15.664 65.5022 15.664C66.0249 15.664 66.4755 15.5467 66.8542 15.312C67.2382 15.072 67.5369 14.7307 67.7502 14.288L69.3902 14.808C69.0542 15.5813 68.5449 16.1813 67.8622 16.608C67.1795 17.0293 66.4195 17.24 65.5822 17.24ZM62.5022 13.152V11.848H68.6702V13.152H62.5022Z" fill="#587BE0"/>
</svg>
