<svg width="25" height="24" viewBox="0 0 25 24" fill="none" xmlns="http://www.w3.org/2000/svg">
<g clip-path="url(#clip0_1_2176)">
<path d="M24.6235 4.937C23.7885 5.307 22.8915 5.557 21.9485 5.67C22.9215 5.08779 23.6494 4.17147 23.9965 3.092C23.0823 3.63499 22.0818 4.0172 21.0385 4.222C20.3369 3.47287 19.4075 2.97633 18.3948 2.80947C17.3821 2.64262 16.3426 2.81479 15.4377 3.29925C14.5329 3.78371 13.8133 4.55336 13.3906 5.4887C12.968 6.42405 12.866 7.47275 13.1005 8.472C11.2482 8.379 9.43611 7.89755 7.7819 7.05891C6.1277 6.22026 4.66832 5.04316 3.49848 3.604C3.09848 4.294 2.86848 5.094 2.86848 5.946C2.86803 6.713 3.05691 7.46824 3.41836 8.14473C3.7798 8.82122 4.30264 9.39804 4.94048 9.824C4.20076 9.80046 3.47735 9.60058 2.83048 9.241V9.301C2.83041 10.3767 3.20251 11.4194 3.88366 12.252C4.56481 13.0846 5.51305 13.6559 6.56748 13.869C5.88126 14.0547 5.16182 14.0821 4.46348 13.949C4.76098 14.8746 5.34048 15.684 6.12085 16.2639C6.90122 16.8438 7.8434 17.1652 8.81548 17.183C7.16531 18.4784 5.12737 19.1811 3.02948 19.178C2.65786 19.1781 2.28656 19.1564 1.91748 19.113C4.04696 20.4822 6.52582 21.2088 9.05748 21.206C17.6275 21.206 22.3125 14.108 22.3125 7.952C22.3125 7.752 22.3075 7.55 22.2985 7.35C23.2098 6.69097 23.9964 5.8749 24.6215 4.94L24.6235 4.937Z" fill="#587BE0"/>
</g>
<defs>
<clipPath id="clip0_1_2176">
<rect width="24" height="24" fill="white" transform="translate(0.980469)"/>
</clipPath>
</defs>
</svg>
