<svg width="16" height="16" viewBox="0 0 16 16" fill="none" xmlns="http://www.w3.org/2000/svg">
<path d="M4.66669 5.33333C5.77126 5.33333 6.66669 4.4379 6.66669 3.33333C6.66669 2.22876 5.77126 1.33333 4.66669 1.33333C3.56212 1.33333 2.66669 2.22876 2.66669 3.33333C2.66669 4.4379 3.56212 5.33333 4.66669 5.33333Z" fill="#6F6E73"/>
<path d="M6.66667 8H3.932C3.44461 8.00014 2.97405 8.17824 2.60872 8.50085C2.24339 8.82346 2.00844 9.26838 1.948 9.752L1.52067 13.168C1.49722 13.3556 1.51395 13.5461 1.56974 13.7267C1.62552 13.9074 1.7191 14.0741 1.84425 14.2159C1.9694 14.3576 2.12326 14.4711 2.29563 14.5488C2.468 14.6265 2.65492 14.6667 2.844 14.6667H6" fill="#6F6E73"/>
<path d="M14.4793 13.168L14.0526 9.752C13.9922 9.26815 13.757 8.82305 13.3914 8.50041C13.0258 8.17777 12.5549 7.99981 12.0673 8H10.598C10.1106 8.00014 9.64001 8.17824 9.27468 8.50085C8.90935 8.82347 8.67439 9.26838 8.61395 9.752L8.18662 13.168C8.16317 13.3557 8.17991 13.5462 8.23574 13.7269C8.29157 13.9076 8.3852 14.0744 8.51043 14.2161C8.63565 14.3579 8.78959 14.4713 8.96204 14.549C9.13449 14.6267 9.32149 14.6668 9.51062 14.6667H13.156C13.345 14.6667 13.532 14.6265 13.7043 14.5488C13.8767 14.4711 14.0306 14.3576 14.1557 14.2159C14.2809 14.0741 14.3744 13.9074 14.4302 13.7267C14.486 13.5461 14.5027 13.3556 14.4793 13.168Z" fill="#6F6E73"/>
<path d="M11.3333 5.33333C12.4379 5.33333 13.3333 4.4379 13.3333 3.33333C13.3333 2.22876 12.4379 1.33333 11.3333 1.33333C10.2287 1.33333 9.33331 2.22876 9.33331 3.33333C9.33331 4.4379 10.2287 5.33333 11.3333 5.33333Z" fill="#6F6E73"/>
</svg>
